HIERARCHY
ROOT mixamorig:Hips
{
	OFFSET -0.000008 104.274872 1.554316
	CHANNELS 6 Xposition Yposition Zposition Xrotation Yrotation Zrotation
	JOINT mixamorig:Spine
	{
		OFFSET -0.000005 10.181595 0.131519
		CHANNELS 6 Xposition Yposition Zposition Xrotation Yrotation Zrotation
		JOINT mixamorig:Spine1
		{
			OFFSET -0.000000 9.893959 -1.470707
			CHANNELS 6 Xposition Yposition Zposition Xrotation Yrotation Zrotation
			JOINT mixamorig:Spine2
			{
				OFFSET -0.000000 9.220757 -1.370641
				CHANNELS 6 Xposition Yposition Zposition Xrotation Yrotation Zrotation
				JOINT mixamorig:Neck
				{
					OFFSET 0.000001 16.740417 -2.049036
					CHANNELS 6 Xposition Yposition Zposition Xrotation Yrotation Zrotation
					JOINT mixamorig:Head
					{
						OFFSET 0.000000 9.617874 1.685006
						CHANNELS 6 Xposition Yposition Zposition Xrotation Yrotation Zrotation
						JOINT mixamorig:HeadTop_End
						{
							OFFSET 0.000002 22.037354 7.501101
							CHANNELS 6 Xposition Yposition Zposition Xrotation Yrotation Zrotation
							End Site
							{
								OFFSET 0.000168 2310.654297 -282.823242
							}
						}
					}
				}
				JOINT mixamorig:RightShoulder
				{
					OFFSET -4.569970 11.014908 -2.160885
					CHANNELS 6 Xposition Yposition Zposition Xrotation Yrotation Zrotation
					JOINT mixamorig:RightArm
					{
						OFFSET -10.592851 -0.524811 -2.232101
						CHANNELS 6 Xposition Yposition Zposition Xrotation Yrotation Zrotation
						JOINT mixamorig:RightForeArm
						{
							OFFSET -27.841511 0.000031 -0.000004
							CHANNELS 6 Xposition Yposition Zposition Xrotation Yrotation Zrotation
							JOINT mixamorig:RightHand
							{
								OFFSET -28.328831 -0.000015 0.000015
								CHANNELS 6 Xposition Yposition Zposition Xrotation Yrotation Zrotation
								JOINT mixamorig:RightHandThumb1
								{
									OFFSET -2.464806 -1.573990 2.681852
									CHANNELS 6 Xposition Yposition Zposition Xrotation Yrotation Zrotation
									JOINT mixamorig:RightHandThumb2
									{
										OFFSET -3.215179 -1.872803 1.924282
										CHANNELS 6 Xposition Yposition Zposition Xrotation Yrotation Zrotation
										JOINT mixamorig:RightHandThumb3
										{
											OFFSET -2.654831 -1.527969 1.512609
											CHANNELS 6 Xposition Yposition Zposition Xrotation Yrotation Zrotation
											JOINT mixamorig:RightHandThumb4
											{
												OFFSET -2.018814 -1.152008 1.108052
												CHANNELS 6 Xposition Yposition Zposition Xrotation Yrotation Zrotation
												End Site
												{
													OFFSET -188.809540 -114.533607 132.431396
												}
											}
										}
									}
								}
								JOINT mixamorig:RightHandIndex1
								{
									OFFSET -9.108284 -0.517868 2.259835
									CHANNELS 6 Xposition Yposition Zposition Xrotation Yrotation Zrotation
									JOINT mixamorig:RightHandIndex2
									{
										OFFSET -3.699989 0.000000 0.001215
										CHANNELS 6 Xposition Yposition Zposition Xrotation Yrotation Zrotation
										JOINT mixamorig:RightHandIndex3
										{
											OFFSET -2.850006 0.000031 -0.000522
											CHANNELS 6 Xposition Yposition Zposition Xrotation Yrotation Zrotation
											JOINT mixamorig:RightHandIndex4
											{
												OFFSET -2.772186 -0.000015 -0.000020
												CHANNELS 6 Xposition Yposition Zposition Xrotation Yrotation Zrotation
												End Site
												{
													OFFSET -277.218445 0.000000 -0.050231
												}
											}
										}
									}
								}
								JOINT mixamorig:RightHandMiddle1
								{
									OFFSET -9.532516 -0.000031 -0.000023
									CHANNELS 6 Xposition Yposition Zposition Xrotation Yrotation Zrotation
									JOINT mixamorig:RightHandMiddle2
									{
										OFFSET -3.700005 -0.000015 0.003713
										CHANNELS 6 Xposition Yposition Zposition Xrotation Yrotation Zrotation
										JOINT mixamorig:RightHandMiddle3
										{
											OFFSET -2.949974 0.000015 -0.002054
											CHANNELS 6 Xposition Yposition Zposition Xrotation Yrotation Zrotation
											JOINT mixamorig:RightHandMiddle4
											{
												OFFSET -2.946640 0.000000 -0.000156
												CHANNELS 6 Xposition Yposition Zposition Xrotation Yrotation Zrotation
												End Site
												{
													OFFSET -294.664337 0.000000 -0.113670
												}
											}
										}
									}
								}
								JOINT mixamorig:RightHandRing1
								{
									OFFSET -9.103600 -0.043076 -1.865134
									CHANNELS 6 Xposition Yposition Zposition Xrotation Yrotation Zrotation
									JOINT mixamorig:RightHandRing2
									{
										OFFSET -3.379288 0.000000 -0.001055
										CHANNELS 6 Xposition Yposition Zposition Xrotation Yrotation Zrotation
										JOINT mixamorig:RightHandRing3
										{
											OFFSET -2.889687 -0.000015 0.000379
											CHANNELS 6 Xposition Yposition Zposition Xrotation Yrotation Zrotation
											JOINT mixamorig:RightHandRing4
											{
												OFFSET -2.638809 -0.000015 0.000941
												CHANNELS 6 Xposition Yposition Zposition Xrotation Yrotation Zrotation
												End Site
												{
													OFFSET -263.880371 0.000000 0.516020
												}
											}
										}
									}
								}
								JOINT mixamorig:RightHandPinky1
								{
									OFFSET -8.076683 -0.486710 -3.806280
									CHANNELS 6 Xposition Yposition Zposition Xrotation Yrotation Zrotation
									JOINT mixamorig:RightHandPinky2
									{
										OFFSET -3.600014 -0.000015 -0.003747
										CHANNELS 6 Xposition Yposition Zposition Xrotation Yrotation Zrotation
										JOINT mixamorig:RightHandPinky3
										{
											OFFSET -2.099983 0.000000 -0.005739
											CHANNELS 6 Xposition Yposition Zposition Xrotation Yrotation Zrotation
											JOINT mixamorig:RightHandPinky4
											{
												OFFSET -2.115768 -0.000031 -0.003680
												CHANNELS 6 Xposition Yposition Zposition Xrotation Yrotation Zrotation
												End Site
												{
													OFFSET -211.577087 0.000000 -0.350686
												}
											}
										}
									}
								}
							}
						}
					}
				}
				JOINT mixamorig:LeftShoulder
				{
					OFFSET 4.570447 11.014725 -2.160855
					CHANNELS 6 Xposition Yposition Zposition Xrotation Yrotation Zrotation
					JOINT mixamorig:LeftArm
					{
						OFFSET 10.592371 -0.524597 -2.232119
						CHANNELS 6 Xposition Yposition Zposition Xrotation Yrotation Zrotation
						JOINT mixamorig:LeftForeArm
						{
							OFFSET 27.841532 -0.000031 0.000026
							CHANNELS 6 Xposition Yposition Zposition Xrotation Yrotation Zrotation
							JOINT mixamorig:LeftHand
							{
								OFFSET 28.328846 -0.000061 0.000022
								CHANNELS 6 Xposition Yposition Zposition Xrotation Yrotation Zrotation
								JOINT mixamorig:LeftHandThumb1
								{
									OFFSET 2.466141 -1.576172 2.681732
									CHANNELS 6 Xposition Yposition Zposition Xrotation Yrotation Zrotation
									JOINT mixamorig:LeftHandThumb2
									{
										OFFSET 3.217812 -1.872070 1.916482
										CHANNELS 6 Xposition Yposition Zposition Xrotation Yrotation Zrotation
										JOINT mixamorig:LeftHandThumb3
										{
											OFFSET 2.656029 -1.528778 1.514513
											CHANNELS 6 Xposition Yposition Zposition Xrotation Yrotation Zrotation
											JOINT mixamorig:LeftHandThumb4
											{
												OFFSET 2.020889 -1.154053 1.115139
												CHANNELS 6 Xposition Yposition Zposition Xrotation Yrotation Zrotation
												End Site
												{
													OFFSET 190.885437 -115.081749 130.048782
												}
											}
										}
									}
								}
								JOINT mixamorig:LeftHandIndex1
								{
									OFFSET 9.109314 -0.518021 2.259871
									CHANNELS 6 Xposition Yposition Zposition Xrotation Yrotation Zrotation
									JOINT mixamorig:LeftHandIndex2
									{
										OFFSET 3.699989 0.000000 -0.000322
										CHANNELS 6 Xposition Yposition Zposition Xrotation Yrotation Zrotation
										JOINT mixamorig:LeftHandIndex3
										{
											OFFSET 2.850006 0.000000 0.000352
											CHANNELS 6 Xposition Yposition Zposition Xrotation Yrotation Zrotation
											JOINT mixamorig:LeftHandIndex4
											{
												OFFSET 2.774864 -0.000031 -0.000027
												CHANNELS 6 Xposition Yposition Zposition Xrotation Yrotation Zrotation
												End Site
												{
													OFFSET 277.486267 0.000000 -0.009857
												}
											}
										}
									}
								}
								JOINT mixamorig:LeftHandMiddle1
								{
									OFFSET 9.533394 0.000061 0.000044
									CHANNELS 6 Xposition Yposition Zposition Xrotation Yrotation Zrotation
									JOINT mixamorig:LeftHandMiddle2
									{
										OFFSET 3.699989 -0.000015 -0.000231
										CHANNELS 6 Xposition Yposition Zposition Xrotation Yrotation Zrotation
										JOINT mixamorig:LeftHandMiddle3
										{
											OFFSET 2.949997 -0.000015 -0.000059
											CHANNELS 6 Xposition Yposition Zposition Xrotation Yrotation Zrotation
											JOINT mixamorig:LeftHandMiddle4
											{
												OFFSET 2.952896 0.000031 0.000063
												CHANNELS 6 Xposition Yposition Zposition Xrotation Yrotation Zrotation
												End Site
												{
													OFFSET 295.289337 0.000000 0.022810
												}
											}
										}
									}
								}
								JOINT mixamorig:LeftHandRing1
								{
									OFFSET 9.104523 -0.042999 -1.865074
									CHANNELS 6 Xposition Yposition Zposition Xrotation Yrotation Zrotation
									JOINT mixamorig:LeftHandRing2
									{
										OFFSET 3.150009 -0.000031 0.000043
										CHANNELS 6 Xposition Yposition Zposition Xrotation Yrotation Zrotation
										JOINT mixamorig:LeftHandRing3
										{
											OFFSET 2.949982 -0.000015 0.000040
											CHANNELS 6 Xposition Yposition Zposition Xrotation Yrotation Zrotation
											JOINT mixamorig:LeftHandRing4
											{
												OFFSET 2.644348 0.000000 0.000057
												CHANNELS 6 Xposition Yposition Zposition Xrotation Yrotation Zrotation
												End Site
												{
													OFFSET 264.434631 0.000000 0.012105
												}
											}
										}
									}
								}
								JOINT mixamorig:LeftHandPinky1
								{
									OFFSET 8.077789 -0.486847 -3.806259
									CHANNELS 6 Xposition Yposition Zposition Xrotation Yrotation Zrotation
									JOINT mixamorig:LeftHandPinky2
									{
										OFFSET 3.599953 0.000031 0.014727
										CHANNELS 6 Xposition Yposition Zposition Xrotation Yrotation Zrotation
										JOINT mixamorig:LeftHandPinky3
										{
											OFFSET 2.100021 0.000015 0.007705
											CHANNELS 6 Xposition Yposition Zposition Xrotation Yrotation Zrotation
											JOINT mixamorig:LeftHandPinky4
											{
												OFFSET 2.125504 0.000031 0.007517
												CHANNELS 6 Xposition Yposition Zposition Xrotation Yrotation Zrotation
												End Site
												{
													OFFSET 212.550781 0.000000 0.625752
												}
											}
										}
									}
								}
							}
						}
					}
				}
			}
		}
	}
	JOINT mixamorig:RightUpLeg
	{
		OFFSET -8.207787 -6.751648 -1.599560
		CHANNELS 6 Xposition Yposition Zposition Xrotation Yrotation Zrotation
		JOINT mixamorig:RightLeg
		{
			OFFSET -0.000002 -44.370117 0.345942
			CHANNELS 6 Xposition Yposition Zposition Xrotation Yrotation Zrotation
			JOINT mixamorig:RightFoot
			{
				OFFSET 0.000003 -44.423679 -3.043532
				CHANNELS 6 Xposition Yposition Zposition Xrotation Yrotation Zrotation
				JOINT mixamorig:RightToeBase
				{
					OFFSET -0.000002 -8.728671 10.710558
					CHANNELS 6 Xposition Yposition Zposition Xrotation Yrotation Zrotation
					JOINT mixamorig:RightToe_End
					{
						OFFSET -0.000001 -0.000679 9.278119
						CHANNELS 6 Xposition Yposition Zposition Xrotation Yrotation Zrotation
						End Site
						{
							OFFSET 0.000000 -0.067690 927.812134
						}
					}
				}
			}
		}
	}
	JOINT mixamorig:LeftUpLeg
	{
		OFFSET 8.207793 -6.751686 -1.599556
		CHANNELS 6 Xposition Yposition Zposition Xrotation Yrotation Zrotation
		JOINT mixamorig:LeftLeg
		{
			OFFSET -0.000004 -44.370014 0.346954
			CHANNELS 6 Xposition Yposition Zposition Xrotation Yrotation Zrotation
			JOINT mixamorig:LeftFoot
			{
				OFFSET -0.000001 -44.423672 -3.044401
				CHANNELS 6 Xposition Yposition Zposition Xrotation Yrotation Zrotation
				JOINT mixamorig:LeftToeBase
				{
					OFFSET -0.000002 -8.728669 10.710558
					CHANNELS 6 Xposition Yposition Zposition Xrotation Yrotation Zrotation
					JOINT mixamorig:LeftToe_End
					{
						OFFSET -0.000003 -0.000679 9.278133
						CHANNELS 6 Xposition Yposition Zposition Xrotation Yrotation Zrotation
						End Site
						{
							OFFSET 0.000000 -0.068021 927.813477
						}
					}
				}
			}
		}
	}
}
MOTION
Frames: 3
Frame Time: 0.033333
0.000006 104.270477 1.554256 0.000010 0.000003 -0.000113 -0.000005 10.181587 0.131522 0.000001 -0.000003 0.000084 -0.000000 9.893967 -1.470711 0.000001 0.000000 -0.000000 -0.000000 9.220802 -1.370642 0.000000 -0.000000 -0.000000 0.000001 16.740433 -2.049030 0.000000 -0.000000 -0.000000 0.000000 9.617859 1.685014 0.000000 0.000000 0.000000 0.000002 22.037384 7.501101 0.000000 -0.000000 0.000000 -4.569968 11.014880 -2.160881 0.000008 0.000001 -0.000038 -10.592882 -0.524729 -2.231947 72.205085 20.851389 -15.285304 -27.841526 0.000010 0.000541 -57.416203 109.803487 75.858724 -28.328833 0.000020 0.000028 -0.000315 -0.000047 0.000009 -2.464422 -1.573905 2.682386 -30.677487 -153.355792 25.417272 -3.215250 -1.872564 1.924647 154.726051 33.621155 15.916538 -2.654936 -1.527896 1.513088 149.400744 25.940669 -41.419077 -2.018827 -1.152013 1.108070 -0.000003 -0.000002 0.000005 -9.108383 -0.517570 2.260139 102.772299 17.769758 -22.207641 -3.700071 0.000327 0.001539 100.953577 13.538799 -16.346224 -2.850069 0.000369 -0.000235 100.009030 9.891971 -11.777311 -2.772164 -0.000015 -0.000023 0.000001 0.000000 0.000000 -9.532594 0.000261 0.000256 97.788932 17.549152 -20.228853 -3.700077 0.000332 0.003987 96.834870 11.702511 -13.070564 -2.950069 0.000351 -0.001805 98.071797 10.133167 -11.653700 -2.946634 0.000014 -0.000154 -0.000002 -0.000000 0.000001 -9.103701 -0.042767 -1.864870 94.422113 19.208203 -20.669850 -3.379330 0.000324 -0.000795 96.714796 10.126631 -11.400608 -2.889752 0.000369 0.000659 102.284699 5.451580 -6.819085 -2.638803 -0.000000 0.000943 -0.000001 -0.000000 0.000001 -8.076752 -0.486394 -3.806016 86.522350 19.337276 -18.072467 -3.600039 0.000280 -0.003517 90.056317 9.103351 -8.753926 -2.100007 0.000316 -0.005487 93.183089 4.323202 -4.342599 -2.115777 -0.000068 -0.003677 -0.000002 0.000001 -0.000003 4.570446 11.014691 -2.160851 -0.000018 0.000010 -0.000021 10.592386 -0.524484 -2.232339 74.151648 -7.721214 5.838275 27.841820 0.000078 -0.000191 96.155512 -68.968771 74.827953 28.328854 -0.000028 0.000021 0.000022 -0.000089 0.000000 2.466272 -1.576072 2.681842 7.775907 164.898853 -97.169577 3.217869 -1.871824 1.916420 167.267262 -21.955891 37.529898 2.656093 -1.528690 1.514491 140.575265 -27.026463 59.025716 2.020890 -1.154083 1.115139 0.000007 -0.000001 0.000003 9.109417 -0.517875 2.259750 81.202097 -18.519303 15.899220 3.700048 0.000140 -0.000462 78.712097 -15.526958 12.773948 2.850029 0.000176 0.000210 76.244234 -12.785251 10.047861 2.774880 -0.000032 -0.000029 -0.000001 0.000000 -0.000000 9.533487 0.000195 -0.000094 81.789350 -17.128608 14.854249 3.700055 0.000162 -0.000373 83.886990 -12.856149 11.559681 2.950063 0.000142 -0.000210 83.389138 -15.557957 13.879261 2.952871 -0.000048 0.000066 -0.000001 -0.000001 0.000001 9.104612 -0.042865 -1.865208 80.492140 -15.750114 13.357048 3.150044 0.000173 -0.000098 84.996609 -12.565966 11.522978 2.950036 0.000167 -0.000065 86.145051 -13.111157 12.265820 2.644328 0.000015 0.000062 -0.000000 -0.000001 -0.000001 8.077858 -0.486742 -3.806403 71.580731 -17.475181 13.082176 3.600008 0.000170 0.014574 75.548606 -15.634395 12.555658 2.100054 0.000165 0.007548 78.304431 -13.953433 11.783862 2.125504 -0.000014 0.007511 0.000000 0.000001 -0.000003 -8.207786 -6.751667 -1.599560 -0.077001 -0.000003 0.000080 -0.000002 -44.370110 0.345938 0.153719 -0.000000 -0.000000 0.000000 -44.423679 -3.043532 -0.076700 0.000000 -0.000002 -0.000006 -8.728667 10.710559 -0.000009 -0.000000 -0.000000 -0.000001 -0.000679 9.278123 0.000000 -0.000000 -0.000000 8.207792 -6.751710 -1.599556 -0.074518 -0.000003 0.000081 -0.000002 -44.370014 0.346960 0.148822 0.000002 0.000000 -0.000001 -44.423664 -3.044403 -0.074314 0.000000 -0.000002 -0.000004 -8.728671 10.710558 0.000007 -0.000000 -0.000000 0.000000 -0.000680 9.278137 -0.000000 0.000000 -0.000001 
0.000006 104.270477 1.554256 0.000010 0.000003 -0.000113 -0.000005 10.181587 0.131522 0.000001 -0.000003 0.000084 -0.000000 9.893967 -1.470711 0.000001 0.000000 -0.000000 -0.000000 9.220802 -1.370642 0.000000 -0.000000 -0.000000 0.000001 16.740433 -2.049030 0.000000 -0.000000 -0.000000 0.000000 9.617859 1.685014 0.000000 0.000000 0.000000 0.000002 22.037384 7.501101 0.000000 -0.000000 0.000000 -4.569968 11.014880 -2.160881 0.000008 0.000001 -0.000038 -10.592882 -0.524726 -2.231967 73.089820 19.232650 -14.315212 -27.841534 0.000011 0.000564 -56.049509 109.982233 74.462408 -28.328833 0.000020 0.000030 -0.000319 -0.000045 0.000008 -2.464402 -1.573864 2.682353 -38.945797 -153.643917 8.667353 -3.215255 -1.872515 1.924625 151.631101 33.878934 22.381992 -2.654952 -1.527900 1.513088 147.354378 26.794882 -37.718729 -2.018834 -1.152000 1.108074 -0.000001 -0.000001 0.000002 -9.108393 -0.517554 2.260149 101.791409 16.463444 -20.241527 -3.700071 0.000324 0.001516 99.347246 13.316909 -15.633243 -2.850063 0.000365 -0.000251 97.461574 11.034500 -12.561309 -2.772151 -0.000015 -0.000018 0.000001 -0.000001 0.000001 -9.532597 0.000256 0.000259 95.780965 17.184076 -19.138573 -3.700093 0.000322 0.003985 95.275695 11.784790 -12.810633 -2.950070 0.000324 -0.001796 97.796288 11.229144 -12.850387 -2.946614 0.000001 -0.000153 0.000000 0.000000 -0.000001 -9.103708 -0.042761 -1.864860 94.171609 18.505991 -19.829523 -3.379323 0.000329 -0.000795 95.237221 8.807515 -9.666742 -2.889757 0.000354 0.000660 103.224212 6.414010 -8.148090 -2.638810 -0.000016 0.000939 -0.000001 0.000001 0.000000 -8.076759 -0.486403 -3.806029 84.865135 19.982424 -18.155681 -3.600039 0.000299 -0.003520 88.724103 8.698937 -8.159643 -2.100011 0.000319 -0.005479 94.722716 4.613701 -4.775423 -2.115756 -0.000056 -0.003678 -0.000004 0.000000 -0.000002 4.570446 11.014691 -2.160851 -0.000018 0.000010 -0.000021 10.592370 -0.524498 -2.232326 74.335496 0.071539 -0.054152 27.841824 0.000075 -0.000205 97.198107 -69.591049 76.489492 28.328833 -0.000028 0.000016 0.000020 -0.000088 -0.000001 2.466231 -1.575911 2.681785 17.093670 187.697737 -133.981045 3.217865 -1.871897 1.916445 164.897255 -16.623304 57.366691 2.656076 -1.528686 1.514491 142.897830 -25.929620 61.665318 2.020879 -1.154081 1.115154 0.000001 0.000004 0.000004 9.109361 -0.517885 2.259744 81.342827 -21.535757 18.550616 3.700056 0.000141 -0.000470 79.946627 -13.451545 11.306253 2.850050 0.000172 0.000201 78.845723 -9.940991 8.177874 2.774891 -0.000015 -0.000025 -0.000001 -0.000005 -0.000001 9.533457 0.000181 -0.000072 80.602823 -20.350200 17.302066 3.700029 0.000165 -0.000378 84.529827 -10.651680 9.682827 2.950057 0.000180 -0.000205 85.277726 -10.066122 9.275148 2.952845 -0.000018 0.000060 0.000001 -0.000003 -0.000001 9.104568 -0.042870 -1.865214 80.173232 -19.652701 16.590232 3.150049 0.000191 -0.000088 84.308734 -12.672261 11.482224 2.950007 0.000182 -0.000086 85.038205 -10.173342 9.333875 2.644315 0.000014 0.000054 0.000000 -0.000001 0.000001 8.077822 -0.486751 -3.806409 72.571156 -21.079723 16.016990 3.600021 0.000144 0.014566 72.842308 -17.766259 13.557214 2.100051 0.000159 0.007528 75.156103 -13.393527 10.706187 2.125504 -0.000016 0.007516 -0.000004 0.000002 -0.000000 -8.207786 -6.751667 -1.599560 -0.077001 -0.000003 0.000080 -0.000002 -44.370110 0.345938 0.153719 -0.000000 -0.000000 0.000000 -44.423679 -3.043532 -0.076700 0.000000 -0.000002 -0.000006 -8.728667 10.710559 -0.000009 -0.000000 -0.000000 -0.000001 -0.000679 9.278123 0.000000 -0.000000 -0.000000 8.207792 -6.751710 -1.599556 -0.074518 -0.000003 0.000081 -0.000002 -44.370014 0.346960 0.148822 0.000002 0.000000 -0.000001 -44.423664 -3.044403 -0.074314 0.000000 -0.000002 -0.000004 -8.728671 10.710558 0.000007 -0.000000 -0.000000 0.000000 -0.000680 9.278137 -0.000000 0.000000 -0.000001 
0.000006 104.270477 1.554256 0.000010 0.000003 -0.000113 -0.000005 10.181587 0.131522 0.000001 -0.000003 0.000084 -0.000000 9.893967 -1.470711 0.000001 0.000000 -0.000000 -0.000000 9.220802 -1.370642 0.000000 -0.000000 -0.000000 0.000001 16.740433 -2.049030 0.000000 -0.000000 -0.000000 0.000000 9.617859 1.685014 0.000000 0.000000 0.000000 0.000002 22.037384 7.501101 0.000000 -0.000000 0.000000 -4.569968 11.014880 -2.160881 0.000008 0.000001 -0.000038 -10.592874 -0.524760 -2.231908 73.323310 29.174566 -21.925846 -27.841524 0.000013 0.000523 -54.590669 106.830996 69.616696 -28.328810 0.000021 0.000025 -0.000322 -0.000044 0.000006 -2.464388 -1.573874 2.682345 -38.548560 -152.889386 9.227761 -3.215266 -1.872554 1.924615 151.897438 33.744369 20.992399 -2.654957 -1.527873 1.513070 146.652535 26.942946 -37.666793 -2.018830 -1.151995 1.108064 -0.000003 -0.000005 0.000000 -9.108381 -0.517562 2.260128 101.124031 16.078851 -19.543881 -3.700060 0.000338 0.001536 98.964018 12.849630 -14.984959 -2.850096 0.000373 -0.000257 96.912161 10.705536 -12.071108 -2.772157 -0.000016 -0.000017 0.000000 0.000001 0.000000 -9.532591 0.000270 0.000244 95.487233 16.350250 -18.127199 -3.700064 0.000329 0.003969 95.414369 10.987246 -11.967572 -2.950047 0.000340 -0.001798 97.873578 10.952119 -12.550744 -2.946623 0.000002 -0.000156 0.000002 -0.000000 -0.000001 -9.103690 -0.042753 -1.864854 94.403098 17.569878 -18.901951 -3.379301 0.000335 -0.000796 95.484282 7.864339 -8.671358 -2.889737 0.000359 0.000651 103.178511 6.206827 -7.880435 -2.638807 -0.000002 0.000946 -0.000002 -0.000000 0.000002 -8.076749 -0.486406 -3.806041 85.144872 19.528899 -17.825397 -3.600033 0.000303 -0.003527 88.675151 8.174219 -7.642219 -2.100017 0.000328 -0.005483 93.844108 4.349252 -4.420806 -2.115777 -0.000046 -0.003677 -0.000000 0.000003 0.000003 4.570446 11.014691 -2.160851 -0.000018 0.000010 -0.000021 10.592384 -0.524483 -2.232330 73.543966 -7.206206 5.388669 27.841816 0.000074 -0.000218 98.335873 -71.714999 79.816108 28.328854 -0.000044 0.000019 0.000020 -0.000089 0.000000 2.466233 -1.575908 2.681794 21.195359 189.779074 -139.017149 3.217864 -1.871894 1.916439 171.383394 -15.543385 52.774143 2.656108 -1.528642 1.514480 153.860256 -22.750921 53.272976 2.020890 -1.154059 1.115158 -0.000001 0.000001 0.000006 9.109388 -0.517881 2.259738 90.085202 -20.834734 20.852129 3.700067 0.000161 -0.000457 88.567623 -16.003799 15.630581 2.850050 0.000200 0.000207 87.232348 -12.659441 12.065506 2.774875 -0.000046 -0.000026 0.000000 0.000001 -0.000001 9.533465 0.000192 -0.000073 86.896651 -20.132386 19.081785 3.700069 0.000183 -0.000386 91.157883 -13.645582 13.918683 2.950055 0.000191 -0.000205 90.919558 -12.127037 12.324718 2.952879 -0.000031 0.000063 -0.000000 -0.000002 0.000001 9.104597 -0.042868 -1.865219 84.245807 -20.017123 18.136700 3.150079 0.000198 -0.000090 89.061398 -15.183826 14.941770 2.950028 0.000173 -0.000094 87.985507 -11.631350 11.233741 2.644326 0.000017 0.000055 0.000004 0.000000 -0.000000 8.077839 -0.486744 -3.806381 73.595719 -21.182384 16.392845 3.600008 0.000159 0.014585 73.596682 -18.050472 13.958881 2.100056 0.000135 0.007564 72.943545 -13.354355 10.258460 2.125501 -0.000034 0.007511 0.000003 -0.000000 0.000001 -8.207786 -6.751667 -1.599560 -0.077001 -0.000003 0.000080 -0.000002 -44.370110 0.345938 0.153719 -0.000000 -0.000000 0.000000 -44.423679 -3.043532 -0.076700 0.000000 -0.000002 -0.000006 -8.728667 10.710559 -0.000009 -0.000000 -0.000000 -0.000001 -0.000679 9.278123 0.000000 -0.000000 -0.000000 8.207792 -6.751710 -1.599556 -0.074518 -0.000003 0.000081 -0.000002 -44.370014 0.346960 0.148822 0.000002 0.000000 -0.000001 -44.423664 -3.044403 -0.074314 0.000000 -0.000002 -0.000004 -8.728671 10.710558 0.000007 -0.000000 -0.000000 0.000000 -0.000680 9.278137 -0.000000 0.000000 -0.000001 
